<svg width="8" height="14" viewBox="0 0 8 14" fill="none" xmlns="http://www.w3.org/2000/svg">
<path d="M0.929688 13.8594C1.1875 13.8594 1.39844 13.7656 1.57812 13.5938L7.65625 7.65625C7.86719 7.4375 7.97656 7.21094 7.97656 6.92969C7.97656 6.65625 7.875 6.41406 7.65625 6.21094L1.57812 0.265625C1.39844 0.09375 1.1875 0 0.929688 0C0.40625 0 0 0.40625 0 0.921875C0 1.17188 0.109375 1.41406 0.28125 1.59375L5.75781 6.9375L0.28125 12.2656C0.101562 12.4531 0 12.6797 0 12.9375C0 13.4531 0.40625 13.8594 0.929688 13.8594Z" fill="#BDBCBC"/>
</svg>
