<svg width="8" height="15" viewBox="0 0 8 15" fill="none" xmlns="http://www.w3.org/2000/svg">
<path d="M6.39844 14.0938L0.320312 8.14844C0.109375 7.9375 0 7.70312 0 7.42969C0 7.15625 0.109375 6.90625 0.328125 6.70312L6.40625 0.765625C6.57812 0.59375 6.79688 0.5 7.04688 0.5C7.57031 0.5 7.97656 0.90625 7.97656 1.42188C7.97656 1.67188 7.875 1.91406 7.69531 2.09375L2.22656 7.42188L7.69531 12.7656C7.875 12.9453 7.97656 13.1797 7.97656 13.4375C7.97656 13.9531 7.57031 14.3594 7.04688 14.3594C6.79688 14.3594 6.57812 14.2656 6.39844 14.0938Z" fill="#717171"/>
</svg>
