<svg width="11" height="14" viewBox="0 0 11 14" fill="none" xmlns="http://www.w3.org/2000/svg">
<path d="M5.33008 6.73242C5.5 6.73242 5.63477 6.67969 5.74023 6.56836L8.14258 4.14844C8.27148 4.01953 8.33008 3.87891 8.33008 3.71484C8.33008 3.55664 8.26562 3.4043 8.14258 3.28711L5.74023 0.84375C5.63477 0.726562 5.5 0.667969 5.33008 0.667969C5.01367 0.667969 4.76172 0.931641 4.76172 1.25391C4.76172 1.41211 4.82031 1.54102 4.91992 1.65234L6.32031 3.02344C6.04492 2.98242 5.76367 2.95898 5.48242 2.95898C2.58203 2.95898 0.261719 5.2793 0.261719 8.18555C0.261719 11.0918 2.59961 13.4297 5.5 13.4297C8.40625 13.4297 10.7383 11.0918 10.7383 8.18555C10.7383 7.83398 10.4922 7.58203 10.1406 7.58203C9.80078 7.58203 9.57227 7.83398 9.57227 8.18555C9.57227 10.4473 7.76172 12.2637 5.5 12.2637C3.24414 12.2637 1.42773 10.4473 1.42773 8.18555C1.42773 5.90625 3.22656 4.10156 5.48242 4.10156C5.86328 4.10156 6.21484 4.13086 6.52539 4.18359L4.92578 5.76562C4.82031 5.87109 4.76172 6 4.76172 6.1582C4.76172 6.48047 5.01367 6.73242 5.33008 6.73242Z" fill="#787878"/>
</svg>
