<svg width="96" height="25" viewBox="0 0 96 25" fill="none" xmlns="http://www.w3.org/2000/svg">
<path d="M13.208 24H0.184V20.256L7.64 11.936H0.376V8.256H13.08V11.808L5.4 20.288H13.208V24ZM15.9058 19.712C15.9058 18.368 16.3431 17.2907 17.2178 16.48C18.0924 15.6693 19.2231 15.1573 20.6098 14.944L24.4818 14.368C25.2711 14.2613 25.6658 13.888 25.6658 13.248C25.6658 12.6507 25.4311 12.16 24.9618 11.776C24.5138 11.392 23.8631 11.2 23.0098 11.2C22.1138 11.2 21.3991 11.4453 20.8658 11.936C20.3538 12.4267 20.0658 13.0347 20.0018 13.76L16.2258 12.96C16.3751 11.5947 17.0471 10.3893 18.2418 9.344C19.4364 8.29867 21.0151 7.776 22.9778 7.776C25.3244 7.776 27.0524 8.34133 28.1618 9.472C29.2711 10.5813 29.8258 12.0107 29.8258 13.76V21.504C29.8258 22.4427 29.8898 23.2747 30.0178 24H26.1138C26.0071 23.5307 25.9538 22.9013 25.9538 22.112C24.9511 23.6693 23.4044 24.448 21.3138 24.448C19.6924 24.448 18.3804 23.9787 17.3778 23.04C16.3964 22.1013 15.9058 20.992 15.9058 19.712ZM22.2098 21.28C23.2124 21.28 24.0338 21.0027 24.6738 20.448C25.3351 19.872 25.6658 18.9333 25.6658 17.632V16.928L22.1138 17.472C20.8124 17.664 20.1618 18.3253 20.1618 19.456C20.1618 19.968 20.3431 20.4053 20.7058 20.768C21.0684 21.1093 21.5698 21.28 22.2098 21.28ZM38.3718 24H34.1158V8.256H38.3718V24ZM33.6038 3.104C33.6038 2.37867 33.8598 1.76 34.3718 1.248C34.8838 0.714665 35.5024 0.447998 36.2278 0.447998C36.9531 0.447998 37.5718 0.703999 38.0838 1.216C38.5958 1.728 38.8518 2.35733 38.8518 3.104C38.8518 3.808 38.5958 4.416 38.0838 4.928C37.5718 5.44 36.9531 5.696 36.2278 5.696C35.5024 5.696 34.8838 5.44 34.3718 4.928C33.8598 4.416 33.6038 3.808 33.6038 3.104ZM47.1843 14.944V24H42.9283V8.256H47.0563V10.208C47.5043 9.44 48.1443 8.85333 48.9763 8.448C49.8083 8.04267 50.6829 7.84 51.6003 7.84C53.4563 7.84 54.8643 8.42667 55.8243 9.6C56.8056 10.752 57.2963 12.2453 57.2963 14.08V24H53.0403V14.816C53.0403 13.8773 52.7949 13.12 52.3043 12.544C51.8349 11.968 51.1096 11.68 50.1283 11.68C49.2323 11.68 48.5176 11.9893 47.9843 12.608C47.4509 13.2267 47.1843 14.0053 47.1843 14.944ZM65.8398 19.424C66.6291 20.2133 67.5784 20.608 68.6878 20.608C69.7971 20.608 70.7358 20.2133 71.5038 19.424C72.2931 18.6347 72.6878 17.536 72.6878 16.128C72.6878 14.72 72.2931 13.6213 71.5038 12.832C70.7358 12.0427 69.7971 11.648 68.6878 11.648C67.5784 11.648 66.6291 12.0427 65.8398 12.832C65.0718 13.6213 64.6878 14.72 64.6878 16.128C64.6878 17.536 65.0718 18.6347 65.8398 19.424ZM62.7678 10.144C64.3464 8.56533 66.3198 7.776 68.6878 7.776C71.0558 7.776 73.0184 8.56533 74.5758 10.144C76.1544 11.7227 76.9438 13.7173 76.9438 16.128C76.9438 18.5387 76.1544 20.5333 74.5758 22.112C73.0184 23.6907 71.0558 24.48 68.6878 24.48C66.3198 24.48 64.3464 23.6907 62.7678 22.112C61.2104 20.5333 60.4318 18.5387 60.4318 16.128C60.4318 13.7173 61.2104 11.7227 62.7678 10.144ZM84.5273 19.424C85.3166 20.2133 86.2659 20.608 87.3753 20.608C88.4846 20.608 89.4233 20.2133 90.1913 19.424C90.9806 18.6347 91.3753 17.536 91.3753 16.128C91.3753 14.72 90.9806 13.6213 90.1913 12.832C89.4233 12.0427 88.4846 11.648 87.3753 11.648C86.2659 11.648 85.3166 12.0427 84.5273 12.832C83.7593 13.6213 83.3753 14.72 83.3753 16.128C83.3753 17.536 83.7593 18.6347 84.5273 19.424ZM81.4553 10.144C83.0339 8.56533 85.0073 7.776 87.3753 7.776C89.7433 7.776 91.7059 8.56533 93.2633 10.144C94.8419 11.7227 95.6313 13.7173 95.6313 16.128C95.6313 18.5387 94.8419 20.5333 93.2633 22.112C91.7059 23.6907 89.7433 24.48 87.3753 24.48C85.0073 24.48 83.0339 23.6907 81.4553 22.112C79.8979 20.5333 79.1193 18.5387 79.1193 16.128C79.1193 13.7173 79.8979 11.7227 81.4553 10.144Z" fill="black"/>
</svg>
