<svg width="74" height="12" viewBox="0 0 74 12" fill="none" xmlns="http://www.w3.org/2000/svg">
<path d="M1.38696 11.0001L1.38696 0.185122H0.0819556L0.0819556 11.0001H1.38696ZM10.2712 7.47512C10.2712 5.25512 8.78617 3.81512 6.79117 3.81512C4.79617 3.81512 3.19117 5.25512 3.19117 7.47512C3.19117 9.69512 4.79617 11.1801 6.79117 11.1801C8.14117 11.1801 9.40117 10.5201 10.0012 9.30512L8.87617 8.85512C8.47117 9.56012 7.69117 9.95012 6.83617 9.95012C5.63617 9.95012 4.73617 9.30512 4.54117 8.06012H10.2412C10.2562 7.86512 10.2712 7.67012 10.2712 7.47512ZM4.55617 6.93512C4.76617 5.67512 5.60617 5.04512 6.79117 5.04512C7.94617 5.04512 8.80117 5.73512 8.96617 6.93512H4.55617ZM17.5697 5.09012C17.1047 4.26512 16.1147 3.81512 15.0647 3.81512C13.0847 3.81512 11.5697 5.42012 11.5697 7.49012C11.5697 9.63512 13.1747 11.1801 15.0047 11.1801C16.1297 11.1801 17.1047 10.5951 17.5697 9.75512V11.0001H18.8747V3.99512H17.5697V5.09012ZM15.1997 9.95012C13.9097 9.95012 12.8897 8.82512 12.8897 7.49012C12.8897 6.17012 13.9097 5.04512 15.1847 5.04512C16.3547 5.04512 17.5697 6.05012 17.5697 7.49012C17.5697 8.91512 16.4447 9.95012 15.1997 9.95012ZM24.4461 3.81512C23.5161 3.81512 22.8411 4.35512 22.4811 5.58512V3.99512H21.1611V11.0001H22.4811V8.43512C22.4811 6.59012 23.0361 5.07512 24.4311 5.07512C24.7011 5.07512 25.0761 5.13512 25.4511 5.31512L25.6611 4.08512C25.4511 3.95012 24.9411 3.81512 24.4461 3.81512ZM30.5918 3.81512C29.8268 3.81512 28.6868 4.20512 28.2668 5.06012V3.99512H26.9618V11.0001H28.2668V7.20512C28.2668 5.69012 29.4368 5.10512 30.4118 5.10512C31.3868 5.10512 32.1068 5.85512 32.1068 7.02512V11.0001H33.4118V6.95012C33.4268 4.98512 32.3318 3.81512 30.5918 3.81512ZM47.6937 3.81512C46.9887 3.81512 45.8937 4.05512 45.2487 5.31512C44.8437 4.35512 43.9587 3.81512 42.9387 3.81512C41.9487 3.81512 41.0337 4.31012 40.6887 5.07512V3.99512H39.3837V11.0001H40.6887V7.20512C40.6887 5.72012 41.6787 5.07512 42.6687 5.07512C43.5987 5.07512 44.2437 5.84012 44.2437 7.02512V11.0001H45.5487V7.49012C45.5487 5.93012 46.1937 5.06012 47.4387 5.07512C48.4587 5.07512 49.1037 5.85512 49.1037 7.02512V11.0001H50.4087V6.95012C50.4087 4.98512 49.4487 3.81512 47.6937 3.81512ZM55.762 11.1801C57.757 11.1801 59.437 9.71012 59.437 7.49012C59.437 5.27012 57.757 3.81512 55.762 3.81512C53.767 3.81512 52.102 5.27012 52.102 7.49012C52.102 9.71012 53.767 11.1801 55.762 11.1801ZM55.762 9.95012C54.487 9.95012 53.422 8.94512 53.422 7.49012C53.422 6.05012 54.487 5.04512 55.762 5.04512C57.052 5.04512 58.132 6.05012 58.132 7.49012C58.132 8.94512 57.052 9.95012 55.762 9.95012ZM64.5388 3.81512C63.6088 3.81512 62.9338 4.35512 62.5738 5.58512V3.99512H61.2538V11.0001H62.5738V8.43512C62.5738 6.59012 63.1288 5.07512 64.5238 5.07512C64.7938 5.07512 65.1688 5.13512 65.5438 5.31512L65.7538 4.08512C65.5438 3.95012 65.0338 3.81512 64.5388 3.81512ZM73.4352 7.47512C73.4352 5.25512 71.9502 3.81512 69.9552 3.81512C67.9602 3.81512 66.3552 5.25512 66.3552 7.47512C66.3552 9.69512 67.9602 11.1801 69.9552 11.1801C71.3052 11.1801 72.5652 10.5201 73.1652 9.30512L72.0402 8.85512C71.6352 9.56012 70.8552 9.95012 70.0002 9.95012C68.8002 9.95012 67.9002 9.30512 67.7052 8.06012H73.4052C73.4202 7.86512 73.4352 7.67012 73.4352 7.47512ZM67.7202 6.93512C67.9302 5.67512 68.7702 5.04512 69.9552 5.04512C71.1102 5.04512 71.9652 5.73512 72.1302 6.93512H67.7202Z" fill="black"/>
</svg>
