<svg width="9" height="12" viewBox="0 0 9 12" fill="none" xmlns="http://www.w3.org/2000/svg">
<path d="M1.64453 11.9121H7.32812C8.11328 11.9121 8.5 11.5254 8.5 10.6699V6.28125C8.5 5.50781 8.18359 5.11523 7.52734 5.05078V3.60352C7.52734 1.37695 6.04492 0.304688 4.48633 0.304688C2.92773 0.304688 1.44531 1.37695 1.44531 3.60352V5.06836C0.835938 5.16211 0.472656 5.54883 0.472656 6.28125V10.6699C0.472656 11.5254 0.859375 11.9121 1.64453 11.9121ZM2.57031 3.49805C2.57031 2.13281 3.4375 1.38281 4.48633 1.38281C5.5293 1.38281 6.40234 2.13281 6.40234 3.49805V5.03906L2.57031 5.04492V3.49805Z" fill="#9C9C9C"/>
</svg>
