<svg width="317" height="92" viewBox="0 0 317 92" fill="none" xmlns="http://www.w3.org/2000/svg">
<rect x="102" y="4" width="83" height="100" transform="rotate(90 102 4)" fill="black"/>
<path d="M8.18394 24.976H20.3279V21.236H8.18394V11.38H22.0879V7.68401H4.22394V38H22.5279V34.304H8.18394V24.976ZM37.4209 26.736L44.1089 17.452H39.4449L35.1329 23.568L30.8209 17.452H26.2009L32.8449 26.692L24.7049 38H29.2809L35.1329 29.948L40.9409 38H45.5169L37.4209 26.736ZM54.2392 17.452V9.70801H50.4112V17.452H46.7152V20.752H50.4112V38H54.2392V20.752H58.6832V17.452H54.2392ZM72.1599 16.924C69.4319 16.924 67.4519 18.508 66.3959 22.116V17.452H62.5239V38H66.3959V30.476C66.3959 25.064 68.0239 20.62 72.1159 20.62C72.9079 20.62 74.0079 20.796 75.1079 21.324L75.7239 17.716C75.1079 17.32 73.6119 16.924 72.1599 16.924ZM94.6041 20.664C93.2401 18.244 90.3361 16.924 87.2561 16.924C81.4481 16.924 77.0041 21.632 77.0041 27.704C77.0041 33.996 81.7121 38.528 87.0801 38.528C90.3801 38.528 93.2401 36.812 94.6041 34.348V38H98.4321V17.452H94.6041V20.664ZM87.6521 34.92C83.8681 34.92 80.8761 31.62 80.8761 27.704C80.8761 23.832 83.8681 20.532 87.6081 20.532C91.0401 20.532 94.6041 23.48 94.6041 27.704C94.6041 31.884 91.3041 34.92 87.6521 34.92ZM133.912 7.68401H116.268V38H120.272V24.976H131.096V21.236H120.272V11.38H133.912V7.68401ZM145.889 38.528C151.741 38.528 156.669 34.216 156.669 27.704C156.669 21.192 151.741 16.924 145.889 16.924C140.037 16.924 135.153 21.192 135.153 27.704C135.153 34.216 140.037 38.528 145.889 38.528ZM145.889 34.92C142.149 34.92 139.025 31.972 139.025 27.704C139.025 23.48 142.149 20.532 145.889 20.532C149.673 20.532 152.841 23.48 152.841 27.704C152.841 31.972 149.673 34.92 145.889 34.92ZM170.886 38.528C176.738 38.528 181.666 34.216 181.666 27.704C181.666 21.192 176.738 16.924 170.886 16.924C165.034 16.924 160.15 21.192 160.15 27.704C160.15 34.216 165.034 38.528 170.886 38.528ZM170.886 34.92C167.146 34.92 164.022 31.972 164.022 27.704C164.022 23.48 167.146 20.532 170.886 20.532C174.67 20.532 177.838 23.48 177.838 27.704C177.838 31.972 174.67 34.92 170.886 34.92ZM191.581 17.452V9.70801H187.753V17.452H184.057V20.752H187.753V38H191.581V20.752H196.025V17.452H191.581ZM17.5119 82.528C22.1759 82.528 26.2239 80.548 28.9079 77.38L26.0039 74.916C23.9799 77.292 20.8999 78.832 17.5119 78.832C11.1319 78.832 6.11594 73.376 6.11594 66.908C6.11594 60.396 11.1319 54.852 17.5119 54.852C20.8999 54.852 23.9799 56.392 26.0039 58.768L28.9079 56.304C26.2239 53.136 22.1759 51.156 17.5119 51.156C8.93194 51.156 2.11194 58.328 2.11194 66.908C2.11194 75.488 8.93194 82.528 17.5119 82.528ZM49.217 64.664C47.853 62.244 44.949 60.924 41.869 60.924C36.061 60.924 31.617 65.632 31.617 71.704C31.617 77.996 36.325 82.528 41.693 82.528C44.993 82.528 47.853 80.812 49.217 78.348V82H53.045V61.452H49.217V64.664ZM42.265 78.92C38.481 78.92 35.489 75.62 35.489 71.704C35.489 67.832 38.481 64.532 42.221 64.532C45.653 64.532 49.217 67.48 49.217 71.704C49.217 75.884 45.917 78.92 42.265 78.92ZM68.9476 60.924C66.2196 60.924 64.2396 62.508 63.1836 66.116V61.452H59.3116V82H63.1836V74.476C63.1836 69.064 64.8116 64.62 68.9036 64.62C69.6956 64.62 70.7956 64.796 71.8956 65.324L72.5116 61.716C71.8956 61.32 70.3996 60.924 68.9476 60.924ZM94.6037 71.66C94.6037 65.148 90.2477 60.924 84.3957 60.924C78.5437 60.924 73.8357 65.148 73.8357 71.66C73.8357 78.172 78.5437 82.528 84.3957 82.528C88.3557 82.528 92.0517 80.592 93.8117 77.028L90.5117 75.708C89.3237 77.776 87.0357 78.92 84.5277 78.92C81.0077 78.92 78.3677 77.028 77.7957 73.376H94.5157C94.5597 72.804 94.6037 72.232 94.6037 71.66ZM77.8397 70.076C78.4557 66.38 80.9197 64.532 84.3957 64.532C87.7837 64.532 90.2917 66.556 90.7757 70.076H77.8397ZM106.102 51.684V55.38H115.342V82H119.346V55.38H128.586V51.684H106.102ZM147.811 71.66C147.811 65.148 143.455 60.924 137.603 60.924C131.751 60.924 127.043 65.148 127.043 71.66C127.043 78.172 131.751 82.528 137.603 82.528C141.563 82.528 145.259 80.592 147.019 77.028L143.719 75.708C142.531 77.776 140.243 78.92 137.735 78.92C134.215 78.92 131.575 77.028 131.003 73.376H147.723C147.767 72.804 147.811 72.232 147.811 71.66ZM131.047 70.076C131.663 66.38 134.127 64.532 137.603 64.532C140.991 64.532 143.499 66.556 143.983 70.076H131.047ZM162.18 82.528C165.392 82.528 168.208 81.296 170.012 79.272L167.592 76.764C166.316 78.084 164.468 78.92 162.312 78.92C158.264 78.92 155.008 75.928 155.008 71.704C155.008 67.48 158.264 64.532 162.312 64.532C164.468 64.532 166.316 65.368 167.592 66.688L170.012 64.18C168.208 62.2 165.392 60.924 162.18 60.924C156.284 60.924 151.136 65.192 151.136 71.704C151.136 78.216 156.284 82.528 162.18 82.528ZM185.054 60.924C182.81 60.924 179.466 62.068 178.234 64.576V50.276H174.406V82H178.234V70.868C178.234 66.424 181.666 64.708 184.526 64.708C187.386 64.708 189.498 66.908 189.498 70.34V82H193.326V70.12C193.37 64.356 190.158 60.924 185.054 60.924ZM209.923 60.924C207.679 60.924 204.335 62.068 203.103 64.576V61.452H199.275V82H203.103V70.868C203.103 66.424 206.535 64.708 209.395 64.708C212.255 64.708 214.367 66.908 214.367 70.34V82H218.195V70.12C218.239 64.356 215.027 60.924 209.923 60.924ZM233.471 82.528C239.323 82.528 244.251 78.216 244.251 71.704C244.251 65.192 239.323 60.924 233.471 60.924C227.619 60.924 222.735 65.192 222.735 71.704C222.735 78.216 227.619 82.528 233.471 82.528ZM233.471 78.92C229.731 78.92 226.607 75.972 226.607 71.704C226.607 67.48 229.731 64.532 233.471 64.532C237.255 64.532 240.423 67.48 240.423 71.704C240.423 75.972 237.255 78.92 233.471 78.92ZM252.969 82V50.276H249.141V82H252.969ZM268.513 82.528C274.365 82.528 279.293 78.216 279.293 71.704C279.293 65.192 274.365 60.924 268.513 60.924C262.661 60.924 257.777 65.192 257.777 71.704C257.777 78.216 262.661 82.528 268.513 82.528ZM268.513 78.92C264.773 78.92 261.649 75.972 261.649 71.704C261.649 67.48 264.773 64.532 268.513 64.532C272.297 64.532 275.465 67.48 275.465 71.704C275.465 75.972 272.297 78.92 268.513 78.92ZM289.208 61.452V53.708H285.38V61.452H281.684V64.752H285.38V82H289.208V64.752H293.652V61.452H289.208ZM305.237 76.588L299.033 61.452H294.897L303.169 81.384L298.857 91.988H302.905L315.665 61.452H311.529L305.237 76.588Z" fill="white"/>
<mask id="mask0_0_241" style="mask-type:alpha" maskUnits="userSpaceOnUse" x="102" y="4" width="214" height="83">
<rect width="83" height="214" transform="matrix(-4.37114e-08 1 1 4.37114e-08 102 4.00002)" fill="black"/>
</mask>
<g mask="url(#mask0_0_241)">
<path d="M6.15994 22.788H19.4039V21.468H6.15994V8.00401H21.2959V6.68401H4.83994V37H21.8239V35.68H6.15994V22.788ZM34.3993 25.56L40.9113 16.452H39.2393L33.5633 24.46L27.7553 16.452H26.0833L32.6833 25.604L24.4553 37H26.1273L33.5193 26.748L40.8673 37H42.5393L34.3993 25.56ZM49.0232 16.452V8.84001H47.7032V16.452H43.9632V17.64H47.7032V37H49.0232V17.64H54.1272V16.452H49.0232ZM66.9064 15.924C62.9904 15.924 60.4384 18.872 59.5584 22.216V16.452H58.2384V37H59.5584V28.904C59.6464 24.372 60.8784 17.244 66.9064 17.244C67.5664 17.244 68.4024 17.288 69.3704 17.596L69.7664 16.32C68.6664 15.968 67.6984 15.924 66.9064 15.924ZM90.3742 21.512C88.5702 18.212 85.0502 15.924 80.9582 15.924C75.0622 15.924 70.2662 20.808 70.2662 26.704C70.2662 32.644 75.0622 37.528 80.9582 37.528C85.0502 37.528 88.5702 35.24 90.3742 31.94V37H91.6942V16.452H90.3742V21.512ZM80.9582 36.208C75.8102 36.208 71.5862 31.896 71.5862 26.704C71.5862 21.556 75.8102 17.244 80.9582 17.244C86.1062 17.244 90.3742 21.292 90.3742 26.924C90.3742 32.248 86.1062 36.208 80.9582 36.208ZM127.791 6.68401H111.555V37H112.875V22.788H124.711V21.468H112.875V8.00401H127.791V6.68401ZM140.312 37.528C146.164 37.528 151.048 33.216 151.048 26.66C151.048 20.148 146.164 15.924 140.312 15.924C134.416 15.924 129.576 20.148 129.576 26.66C129.576 33.216 134.416 37.528 140.312 37.528ZM140.312 36.208C135.12 36.208 130.896 32.424 130.896 26.66C130.896 20.94 135.12 17.244 140.312 17.244C145.46 17.244 149.728 20.94 149.728 26.66C149.728 32.424 145.46 36.208 140.312 36.208ZM165.997 37.528C171.849 37.528 176.733 33.216 176.733 26.66C176.733 20.148 171.849 15.924 165.997 15.924C160.101 15.924 155.261 20.148 155.261 26.66C155.261 33.216 160.101 37.528 165.997 37.528ZM165.997 36.208C160.805 36.208 156.581 32.424 156.581 26.66C156.581 20.94 160.805 17.244 165.997 17.244C171.145 17.244 175.413 20.94 175.413 26.66C175.413 32.424 171.145 36.208 165.997 36.208ZM184.474 16.452V8.84001H183.154V16.452H179.414V17.64H183.154V37H184.474V17.64H189.578V16.452H184.474ZM17.4679 81.528C21.2519 81.528 24.6839 80.12 27.2799 77.788L26.3999 76.82C24.0239 78.932 20.9439 80.208 17.4679 80.208C9.85594 80.208 3.87194 73.74 3.87194 65.908C3.87194 58.032 9.85594 51.476 17.4679 51.476C20.9439 51.476 24.0679 52.796 26.4439 54.908L27.3239 53.94C24.7279 51.608 21.2519 50.156 17.4679 50.156C9.10794 50.156 2.55194 57.284 2.55194 65.908C2.55194 74.488 9.10794 81.528 17.4679 81.528ZM51.0028 65.512C49.1988 62.212 45.6788 59.924 41.5868 59.924C35.6908 59.924 30.8948 64.808 30.8948 70.704C30.8948 76.644 35.6908 81.528 41.5868 81.528C45.6788 81.528 49.1988 79.24 51.0028 75.94V81H52.3228V60.452H51.0028V65.512ZM41.5868 80.208C36.4388 80.208 32.2148 75.896 32.2148 70.704C32.2148 65.556 36.4388 61.244 41.5868 61.244C46.7348 61.244 51.0028 65.292 51.0028 70.924C51.0028 76.248 46.7348 80.208 41.5868 80.208ZM68.2058 59.924C64.2898 59.924 61.7378 62.872 60.8578 66.216V60.452H59.5378V81H60.8578V72.904C60.9458 68.372 62.1778 61.244 68.2058 61.244C68.8658 61.244 69.7018 61.288 70.6698 61.596L71.0658 60.32C69.9658 59.968 68.9978 59.924 68.2058 59.924ZM91.9816 70.66C91.9816 64.192 87.7576 59.924 81.9496 59.924C76.1856 59.924 71.6096 64.192 71.6096 70.66C71.6096 77.172 76.1856 81.528 81.9496 81.528C85.6896 81.528 88.9456 79.636 90.7936 76.644L89.6496 75.94C88.0216 78.536 85.2056 80.208 81.9496 80.208C76.8896 80.208 73.2816 76.556 72.9296 71.232H91.9816V70.66ZM72.9736 70.044C73.3256 64.632 77.0216 61.244 81.9496 61.244C86.8336 61.244 90.3976 64.72 90.6616 70.044H72.9736ZM104.858 50.684V52.004H115.11V81H116.43V52.004H126.726V50.684H104.858ZM145.833 70.66C145.833 64.192 141.609 59.924 135.801 59.924C130.037 59.924 125.461 64.192 125.461 70.66C125.461 77.172 130.037 81.528 135.801 81.528C139.541 81.528 142.797 79.636 144.645 76.644L143.501 75.94C141.873 78.536 139.057 80.208 135.801 80.208C130.741 80.208 127.133 76.556 126.781 71.232H145.833V70.66ZM126.825 70.044C127.177 64.632 130.873 61.244 135.801 61.244C140.685 61.244 144.249 64.72 144.513 70.044H126.825ZM160.592 81.528C163.1 81.528 165.432 80.736 167.324 79.328L166.532 78.272C164.86 79.504 162.792 80.208 160.592 80.208C155.444 80.208 151.22 76.38 151.22 70.66C151.22 64.984 155.444 61.244 160.592 61.244C162.792 61.244 164.904 62.036 166.532 63.18L167.28 62.124C165.432 60.804 163.056 59.924 160.592 59.924C154.74 59.924 149.9 64.192 149.9 70.66C149.9 77.172 154.74 81.528 160.592 81.528ZM181.502 59.924C178.466 59.924 175.078 61.332 173.89 64.94V49.276H172.57V81H173.89V69.252C174.066 63.488 177.63 61.244 181.502 61.244C185.506 61.244 188.586 64.192 188.586 68.9V81H189.906V68.9C189.906 63.356 186.254 59.924 181.502 59.924Z" fill="black"/>
</g>
</svg>
