<svg width="24" height="10" viewBox="0 0 24 10" fill="none" xmlns="http://www.w3.org/2000/svg">
<path d="M5.276 7.608L1.052 0.732H0.224L0.224 9H1.016L1.016 2.112L5.252 9H6.068L6.068 0.732H5.276L5.276 7.608ZM13.372 6.18C13.372 4.404 12.196 3.252 10.6 3.252C9.01597 3.252 7.75597 4.404 7.75597 6.18C7.75597 7.956 9.01597 9.144 10.6 9.144C11.656 9.144 12.616 8.616 13.108 7.716L12.448 7.428C12.076 8.04 11.392 8.412 10.624 8.412C9.49597 8.412 8.65597 7.716 8.52397 6.516H13.348C13.36 6.408 13.372 6.288 13.372 6.18ZM8.53597 5.856C8.69197 4.656 9.49597 3.984 10.6 3.984C11.692 3.984 12.496 4.692 12.604 5.856H8.53597ZM20.5805 7.836L18.9365 3.396L18.1445 3.396L16.5125 7.848L14.8685 3.396H14.0405L16.1885 9H16.8605L18.5285 4.416L20.2685 9H20.9405L23.0285 3.396H22.2125L20.5805 7.836Z" fill="white"/>
</svg>
