<svg width="63" height="10" viewBox="0 0 63 10" fill="none" xmlns="http://www.w3.org/2000/svg">
<path d="M3.528 9.144C5.244 9.144 6.288 7.956 6.288 6.672C6.288 5.496 5.448 4.776 4.044 4.404L2.964 4.116C1.86 3.828 1.764 3.252 1.764 2.964C1.764 2.148 2.532 1.596 3.36 1.596C4.248 1.596 4.932 2.16 4.932 2.988H6.012C6.012 1.512 4.848 0.588 3.396 0.588C1.956 0.588 0.672 1.548 0.672 2.976C0.672 3.648 0.948 4.68 2.7 5.1L3.768 5.364C4.464 5.544 5.196 5.904 5.196 6.708C5.196 7.44 4.596 8.136 3.528 8.136C2.424 8.136 1.728 7.392 1.692 6.66H0.612C0.624 7.944 1.788 9.144 3.528 9.144ZM10.36 9.144C11.236 9.144 12.004 8.808 12.496 8.256L11.836 7.572C11.488 7.932 10.984 8.16 10.396 8.16C9.29203 8.16 8.40403 7.344 8.40403 6.192C8.40403 5.04 9.29203 4.236 10.396 4.236C10.984 4.236 11.488 4.464 11.836 4.824L12.496 4.14C12.004 3.6 11.236 3.252 10.36 3.252C8.75203 3.252 7.34803 4.416 7.34803 6.192C7.34803 7.968 8.75203 9.144 10.36 9.144ZM16.4423 3.252C15.6983 3.252 15.1583 3.684 14.8703 4.668V3.396H13.8143V9H14.8703V6.948C14.8703 5.472 15.3143 4.26 16.4303 4.26C16.6463 4.26 16.9463 4.308 17.2463 4.452L17.4143 3.468C17.2463 3.36 16.8383 3.252 16.4423 3.252ZM20.8115 9.144C22.4075 9.144 23.7515 7.968 23.7515 6.192C23.7515 4.416 22.4075 3.252 20.8115 3.252C19.2155 3.252 17.8835 4.416 17.8835 6.192C17.8835 7.968 19.2155 9.144 20.8115 9.144ZM20.8115 8.16C19.7915 8.16 18.9395 7.356 18.9395 6.192C18.9395 5.04 19.7915 4.236 20.8115 4.236C21.8435 4.236 22.7075 5.04 22.7075 6.192C22.7075 7.356 21.8435 8.16 20.8115 8.16ZM26.249 9L26.249 0.348H25.205L25.205 9H26.249ZM29.1083 9L29.1083 0.348H28.0643L28.0643 9H29.1083ZM38.3869 4.272C38.0149 3.612 37.2229 3.252 36.3829 3.252C34.8469 3.252 33.5869 4.416 33.5869 6.192C33.5869 7.956 34.8589 9.144 36.3949 9.144C37.1989 9.144 38.0149 8.76 38.3869 8.124V9L39.4309 9V0.348H38.3869V4.272ZM36.4789 8.16C35.4589 8.16 34.6429 7.296 34.6429 6.18C34.6429 5.052 35.4589 4.236 36.4789 4.236C37.4029 4.236 38.3869 4.968 38.3869 6.18C38.3869 7.38 37.4869 8.16 36.4789 8.16ZM43.8037 9.144C45.3997 9.144 46.7437 7.968 46.7437 6.192C46.7437 4.416 45.3997 3.252 43.8037 3.252C42.2077 3.252 40.8757 4.416 40.8757 6.192C40.8757 7.968 42.2077 9.144 43.8037 9.144ZM43.8037 8.16C42.7837 8.16 41.9317 7.356 41.9317 6.192C41.9317 5.04 42.7837 4.236 43.8037 4.236C44.8357 4.236 45.6997 5.04 45.6997 6.192C45.6997 7.356 44.8357 8.16 43.8037 8.16ZM53.8034 7.38L52.3634 3.396H51.3434L49.9154 7.38L48.4874 3.396H47.3594L49.4954 9L50.3594 9L51.8474 4.836L53.3954 9H54.2714L56.3594 3.396H55.2314L53.8034 7.38ZM60.359 3.252C59.747 3.252 58.835 3.564 58.499 4.248V3.396H57.455V9H58.499V5.964C58.499 4.752 59.435 4.284 60.215 4.284C60.995 4.284 61.571 4.884 61.571 5.82V9H62.615V5.76C62.627 4.188 61.751 3.252 60.359 3.252Z" fill="black"/>
</svg>
