<svg width="16" height="19" viewBox="0 0 16 19" fill="none" xmlns="http://www.w3.org/2000/svg">
<path d="M8.00829 12.3736C8.43094 12.3736 8.77901 12.0253 8.77901 11.6107V3.26757L8.72099 2.04016L9.22652 2.64557L10.3867 3.88127C10.5193 4.03055 10.7099 4.10519 10.9006 4.10519C11.2818 4.10519 11.5967 3.83151 11.5967 3.44173C11.5967 3.2344 11.5138 3.08512 11.3729 2.94413L8.59669 0.265386C8.39779 0.0663466 8.20718 0 8.00829 0C7.80111 0 7.61878 0.0663466 7.41989 0.265386L4.63536 2.94413C4.49448 3.08512 4.4116 3.2344 4.4116 3.44173C4.4116 3.83151 4.71823 4.10519 5.09945 4.10519C5.29006 4.10519 5.48895 4.03055 5.62155 3.88127L6.78177 2.64557L7.29558 2.03186L7.22928 3.26757V11.6107C7.22928 12.0253 7.57735 12.3736 8.00829 12.3736ZM3.22652 19H12.7735C14.5718 19 15.5 18.0711 15.5 16.2964V8.14404C15.5 6.36927 14.5718 5.44042 12.7735 5.44042H10.5359V7.09079H12.6657C13.4199 7.09079 13.8508 7.48887 13.8508 8.28503V16.1471C13.8508 16.9433 13.4199 17.3413 12.6657 17.3413H3.33425C2.57182 17.3413 2.14917 16.9433 2.14917 16.1471V8.28503C2.14917 7.48887 2.57182 7.09079 3.33425 7.09079H5.48895V5.44042H3.22652C1.43646 5.44042 0.5 6.36098 0.5 8.14404V16.2964C0.5 18.0711 1.43646 19 3.22652 19Z" fill="#717171"/>
</svg>
