<svg width="14" height="17" viewBox="0 0 14 17" fill="none" xmlns="http://www.w3.org/2000/svg">
<path d="M7 17C7.14894 17 7.37234 16.9499 7.5792 16.8329C12.3452 14.2182 14 13.0069 14 9.96609V3.65897C14 2.65651 13.6111 2.2973 12.7837 1.93808C11.8652 1.54545 8.77896 0.459459 7.87707 0.150369C7.60402 0.0584767 7.28132 0 7 0C6.71868 0 6.39598 0.0751843 6.12293 0.150369C5.22104 0.409337 2.13475 1.55381 1.21631 1.93808C0.388889 2.28894 0 2.65651 0 3.65897V9.96609C0 13.0069 1.66312 14.2015 6.41253 16.8329C6.62766 16.9499 6.85106 17 7 17ZM7.44681 1.68747C8.53073 2.12187 10.8889 2.9656 12.13 3.40835C12.3617 3.50025 12.4196 3.62555 12.4196 3.92629V9.657C12.4196 12.1047 11.2033 12.7646 7.47163 15.0369C7.23995 15.1789 7.12411 15.229 7.00827 15.229V1.59558C7.12411 1.59558 7.24823 1.62064 7.44681 1.68747Z" fill="#717171"/>
</svg>
