<svg width="20" height="16" viewBox="0 0 20 16" fill="none" xmlns="http://www.w3.org/2000/svg">
<path d="M2.73096 15.5142H16.9336C18.7349 15.5142 19.6729 14.5845 19.6729 12.8081V2.70605C19.6729 0.929688 18.7349 0 16.9336 0H2.73096C0.937988 0 0 0.921387 0 2.70605V12.8081C0 14.5845 0.937988 15.5142 2.73096 15.5142ZM2.83887 13.8623C2.0752 13.8623 1.65186 13.4639 1.65186 12.6587V2.85547C1.65186 2.05029 2.0752 1.65186 2.83887 1.65186H6.62402V13.8623H2.83887ZM16.8257 1.65186C17.5894 1.65186 18.0127 2.05029 18.0127 2.85547V12.6587C18.0127 13.4639 17.5894 13.8623 16.8257 13.8623H8.19287V1.65186H16.8257ZM4.99707 4.68994C5.2959 4.68994 5.54492 4.43262 5.54492 4.15039C5.54492 3.86816 5.2959 3.61914 4.99707 3.61914H3.29541C2.99658 3.61914 2.74756 3.86816 2.74756 4.15039C2.74756 4.43262 2.99658 4.68994 3.29541 4.68994H4.99707ZM4.99707 6.92285C5.2959 6.92285 5.54492 6.67383 5.54492 6.3833C5.54492 6.10107 5.2959 5.85205 4.99707 5.85205H3.29541C2.99658 5.85205 2.74756 6.10107 2.74756 6.3833C2.74756 6.67383 2.99658 6.92285 3.29541 6.92285H4.99707ZM4.99707 9.14746C5.2959 9.14746 5.54492 8.90674 5.54492 8.61621C5.54492 8.33398 5.2959 8.09326 4.99707 8.09326H3.29541C2.99658 8.09326 2.74756 8.33398 2.74756 8.61621C2.74756 8.90674 2.99658 9.14746 3.29541 9.14746H4.99707Z" fill="#717171"/>
</svg>
