<svg width="18" height="18" viewBox="0 0 18 18" fill="none" xmlns="http://www.w3.org/2000/svg">
<path d="M2.72778 14.0347H4.13726V15.2867C4.13726 17.061 5.07416 17.9896 6.86504 17.9896H15.2722C17.0631 17.9896 18 17.061 18 15.2867V6.82147C18 5.04717 17.0631 4.11857 15.2722 4.11857H13.8627V2.8749C13.8627 1.1006 12.9258 0.171997 11.135 0.171997H2.72778C0.928604 0.171997 0 1.1006 0 2.8749V11.3318C0 13.1144 0.928604 14.0347 2.72778 14.0347ZM2.83556 12.3848C2.07278 12.3848 1.64993 11.9868 1.64993 11.1826V3.02414C1.64993 2.2199 2.07278 1.83022 2.83556 1.83022H11.0272C11.7817 1.83022 12.2128 2.2199 12.2128 3.02414V4.11857H6.86504C5.07416 4.11857 4.13726 5.04717 4.13726 6.82147V12.3848H2.83556ZM6.97282 16.3314C6.21004 16.3314 5.79549 15.9334 5.79549 15.1375V6.97071C5.79549 6.17476 6.21004 5.77679 6.97282 5.77679H15.1644C15.9272 5.77679 16.3501 6.17476 16.3501 6.97071V15.1375C16.3501 15.9334 15.9272 16.3314 15.1644 16.3314H6.97282Z" fill="#717171"/>
</svg>
