<svg width="442" height="28" viewBox="0 0 442 28" fill="none" xmlns="http://www.w3.org/2000/svg">
<path d="M0.5 9.6C0.5 6.23969 0.5 4.55953 1.15396 3.27606C1.7292 2.14708 2.64708 1.2292 3.77606 0.653961C5.05953 0 6.73969 0 10.1 0H431.9C435.26 0 436.94 0 438.224 0.653961C439.353 1.2292 440.271 2.14708 440.846 3.27606C441.5 4.55953 441.5 6.23969 441.5 9.6V18.4C441.5 21.7603 441.5 23.4405 440.846 24.7239C440.271 25.8529 439.353 26.7708 438.224 27.346C436.94 28 435.26 28 431.9 28H10.1C6.73969 28 5.05953 28 3.77606 27.346C2.64708 26.7708 1.7292 25.8529 1.15396 24.7239C0.5 23.4405 0.5 21.7603 0.5 18.4V9.6Z" fill="#F0F0F0"/>
</svg>
