<svg width="133" height="13" viewBox="0 0 133 13" fill="none" xmlns="http://www.w3.org/2000/svg">
<path d="M3.48633 10.123C4.53223 10.123 5.35254 9.59668 5.77637 8.77637H5.80371V10H7.23926V0.135742H5.75586V4.00488H5.72852C5.3252 3.21191 4.50488 2.69238 3.47266 2.69238C1.66797 2.69238 0.464844 4.13477 0.464844 6.4043C0.464844 8.67383 1.66797 10.123 3.48633 10.123ZM3.87598 3.93652C5.01074 3.93652 5.76953 4.91406 5.76953 6.4043C5.76953 7.9082 5.01074 8.87207 3.87598 8.87207C2.70703 8.87207 1.97559 7.92188 1.97559 6.4043C1.97559 4.89355 2.70703 3.93652 3.87598 3.93652ZM8.75684 10H10.2334V5.69336C10.2334 4.6748 10.8213 4.03906 11.7715 4.03906C12.0586 4.03906 12.3184 4.07324 12.4346 4.12109V2.74707C12.3252 2.72656 12.1406 2.69238 11.9287 2.69238C11.0811 2.69238 10.4385 3.19141 10.1992 4.03223H10.165V2.80859H8.75684V10ZM13.3984 10H14.875V2.80859H13.3984V10ZM14.1367 1.75586C14.6152 1.75586 14.998 1.37988 14.998 0.915039C14.998 0.443359 14.6152 0.0673828 14.1367 0.0673828C13.665 0.0673828 13.2822 0.443359 13.2822 0.915039C13.2822 1.37988 13.665 1.75586 14.1367 1.75586ZM20.2139 10.123C22.0391 10.123 23.2148 8.6875 23.2148 6.4043C23.2148 4.12793 22.0322 2.69238 20.2207 2.69238C19.2021 2.69238 18.3818 3.19824 17.9512 4.03223H17.917V0.135742H16.4404V10H17.876V8.77637H17.9033C18.3477 9.61035 19.1611 10.123 20.2139 10.123ZM19.8174 3.93652C20.9795 3.93652 21.6973 4.89355 21.6973 6.4043C21.6973 7.92871 20.9795 8.87207 19.8174 8.87207C18.6963 8.87207 17.9102 7.90137 17.9102 6.4043C17.9102 4.9209 18.6963 3.93652 19.8174 3.93652ZM28.1982 10.123C30.0234 10.123 31.1992 8.6875 31.1992 6.4043C31.1992 4.12793 30.0166 2.69238 28.2051 2.69238C27.1865 2.69238 26.3662 3.19824 25.9355 4.03223H25.9014V0.135742H24.4248V10H25.8604V8.77637H25.8877C26.332 9.61035 27.1455 10.123 28.1982 10.123ZM27.8018 3.93652C28.9639 3.93652 29.6816 4.89355 29.6816 6.4043C29.6816 7.92871 28.9639 8.87207 27.8018 8.87207C26.6807 8.87207 25.8945 7.90137 25.8945 6.4043C25.8945 4.9209 26.6807 3.93652 27.8018 3.93652ZM36.1826 10.123C38.0078 10.123 39.1836 8.6875 39.1836 6.4043C39.1836 4.12793 38.001 2.69238 36.1895 2.69238C35.1709 2.69238 34.3506 3.19824 33.9199 4.03223H33.8857V0.135742H32.4092V10H33.8447V8.77637H33.8721C34.3164 9.61035 35.1299 10.123 36.1826 10.123ZM35.7861 3.93652C36.9482 3.93652 37.666 4.89355 37.666 6.4043C37.666 7.92871 36.9482 8.87207 35.7861 8.87207C34.665 8.87207 33.8789 7.90137 33.8789 6.4043C33.8789 4.9209 34.665 3.93652 35.7861 3.93652ZM40.3936 10H41.8701V0.135742H40.3936V10ZM46.3955 3.86816C47.4277 3.86816 48.125 4.64062 48.1592 5.74121H44.5635C44.6387 4.6543 45.3633 3.86816 46.3955 3.86816ZM48.1523 7.8877C47.9541 8.5166 47.332 8.94043 46.4912 8.94043C45.3086 8.94043 44.5566 8.11328 44.5566 6.8623V6.77344H49.6357V6.26758C49.6357 4.08691 48.3916 2.67871 46.3955 2.67871C44.3652 2.67871 43.0664 4.18262 43.0664 6.43848C43.0664 8.70801 44.3447 10.1367 46.457 10.1367C48.1045 10.1367 49.3486 9.2002 49.5537 7.8877H48.1523ZM51.8916 10.0752C52.3906 10.0752 52.7871 9.67871 52.7871 9.17969C52.7871 8.68066 52.3906 8.28418 51.8916 8.28418C51.3926 8.28418 50.9961 8.68066 50.9961 9.17969C50.9961 9.67871 51.3926 10.0752 51.8916 10.0752ZM60.252 5.2832C60.1221 3.86816 58.9941 2.67871 57.1416 2.67871C55.0977 2.67871 53.7578 4.12109 53.7578 6.4043C53.7578 8.72852 55.0977 10.1367 57.1553 10.1367C58.8848 10.1367 60.1084 9.09766 60.2656 7.56641H58.8438C58.6729 8.40039 58.0781 8.89941 57.1689 8.89941C56.0205 8.89941 55.2617 7.9834 55.2617 6.4043C55.2617 4.85938 56.0137 3.90918 57.1553 3.90918C58.1191 3.90918 58.6934 4.51758 58.8438 5.2832H60.252ZM64.4014 10.1367C66.459 10.1367 67.8125 8.72168 67.8125 6.4043C67.8125 4.09375 66.4521 2.67871 64.4014 2.67871C62.3506 2.67871 60.9902 4.09375 60.9902 6.4043C60.9902 8.72168 62.3438 10.1367 64.4014 10.1367ZM64.4014 8.91992C63.2461 8.91992 62.4941 8.00391 62.4941 6.4043C62.4941 4.81152 63.2461 3.89551 64.4014 3.89551C65.5566 3.89551 66.3086 4.81152 66.3086 6.4043C66.3086 8.00391 65.5635 8.91992 64.4014 8.91992ZM68.9541 10H70.4307V5.55664C70.4307 4.63379 71.0527 3.9502 71.9277 3.9502C72.7617 3.9502 73.2881 4.47656 73.2881 5.30371V10H74.7373V5.50879C74.7373 4.59961 75.3457 3.9502 76.2207 3.9502C77.0957 3.9502 77.5947 4.4834 77.5947 5.41309V10H79.0781V5.05762C79.0781 3.62891 78.1484 2.68555 76.7266 2.68555C75.7012 2.68555 74.8535 3.21875 74.4844 4.09375H74.4502C74.1631 3.19824 73.4385 2.68555 72.4404 2.68555C71.4697 2.68555 70.7178 3.21875 70.3965 4.01855H70.3623V2.80859H68.9541V10ZM81.0879 12.1055L84.5879 0.135742H83.2754L79.7754 12.1055H81.0879ZM87.835 8.9541C87.042 8.9541 86.5225 8.54395 86.5225 7.91504C86.5225 7.2998 87.0215 6.91016 87.9033 6.84863L89.6738 6.73926V7.30664C89.6738 8.24316 88.8672 8.9541 87.835 8.9541ZM87.4248 10.123C88.3682 10.123 89.2773 9.61719 89.6943 8.81738H89.7285V10H91.1436V5.04395C91.1436 3.60156 90.0293 2.67871 88.2861 2.67871C86.5088 2.67871 85.4014 3.63574 85.3193 4.93457H86.7139C86.8438 4.29199 87.377 3.88184 88.2314 3.88184C89.1338 3.88184 89.6738 4.36035 89.6738 5.16016V5.71387L87.7051 5.83008C85.9961 5.92578 85.0322 6.69824 85.0322 7.95605C85.0322 9.24805 86.0166 10.123 87.4248 10.123ZM92.5791 10H94.0557V5.69336C94.0557 4.6748 94.6436 4.03906 95.5938 4.03906C95.8809 4.03906 96.1406 4.07324 96.2568 4.12109V2.74707C96.1475 2.72656 95.9629 2.69238 95.751 2.69238C94.9033 2.69238 94.2607 3.19141 94.0215 4.03223H93.9873V2.80859H92.5791V10ZM97.043 4.8457C97.043 5.85059 97.6992 6.52734 98.998 6.8418L100.283 7.15625C101.035 7.34766 101.309 7.60059 101.309 8.05859C101.309 8.63965 100.762 9.00879 99.873 9.00879C98.9707 9.00879 98.4375 8.62598 98.3213 7.93555H96.8584C96.9746 9.25488 98.1025 10.1367 99.8047 10.1367C101.568 10.1367 102.792 9.23438 102.792 7.92188C102.792 6.8623 102.245 6.31543 100.796 5.9668L99.5859 5.68652C98.8408 5.50195 98.4854 5.20117 98.4854 4.75684C98.4854 4.18945 99.0186 3.7998 99.8184 3.7998C100.646 3.7998 101.172 4.20312 101.24 4.85254H102.628C102.58 3.57422 101.459 2.67871 99.8594 2.67871C98.1777 2.67871 97.043 3.56055 97.043 4.8457ZM103.995 10H105.472V5.84375C105.472 4.70898 106.142 3.95703 107.235 3.95703C108.274 3.95703 108.808 4.59277 108.808 5.65234V10H110.291V5.36523C110.291 3.73828 109.348 2.68555 107.769 2.68555C106.675 2.68555 105.889 3.1709 105.492 4.01172H105.458V0.135742H103.995V10ZM114.235 8.9541C113.442 8.9541 112.923 8.54395 112.923 7.91504C112.923 7.2998 113.422 6.91016 114.304 6.84863L116.074 6.73926V7.30664C116.074 8.24316 115.268 8.9541 114.235 8.9541ZM113.825 10.123C114.769 10.123 115.678 9.61719 116.095 8.81738H116.129V10H117.544V5.04395C117.544 3.60156 116.43 2.67871 114.687 2.67871C112.909 2.67871 111.802 3.63574 111.72 4.93457H113.114C113.244 4.29199 113.777 3.88184 114.632 3.88184C115.534 3.88184 116.074 4.36035 116.074 5.16016V5.71387L114.105 5.83008C112.396 5.92578 111.433 6.69824 111.433 7.95605C111.433 9.24805 112.417 10.123 113.825 10.123ZM120.524 5.8916H120.511V0.135742H119.034V10H120.511V7.41602L121.126 6.80762L123.566 10H125.282L122.186 5.90527L125.166 2.80859H123.43L120.524 5.8916ZM126.096 10H127.572V2.80859H126.096V10ZM126.834 1.75586C127.312 1.75586 127.695 1.37988 127.695 0.915039C127.695 0.443359 127.312 0.0673828 126.834 0.0673828C126.362 0.0673828 125.979 0.443359 125.979 0.915039C125.979 1.37988 126.362 1.75586 126.834 1.75586ZM129.083 10H130.56V5.69336C130.56 4.6748 131.147 4.03906 132.098 4.03906C132.385 4.03906 132.645 4.07324 132.761 4.12109V2.74707C132.651 2.72656 132.467 2.69238 132.255 2.69238C131.407 2.69238 130.765 3.19141 130.525 4.03223H130.491V2.80859H129.083V10Z" fill="#4C4C4C"/>
</svg>
