<svg width="16" height="17" viewBox="0 0 16 17" fill="none" xmlns="http://www.w3.org/2000/svg">
<path d="M8.152 0.665999C3.862 0.665999 0.473996 4.164 0.473996 8.454C0.473996 12.744 3.862 16.22 8.152 16.22C12.442 16.22 15.852 12.744 15.852 8.454C15.852 4.164 12.442 0.665999 8.152 0.665999ZM8.152 15.56C4.236 15.56 1.134 12.37 1.134 8.454C1.134 4.538 4.236 1.326 8.152 1.326C12.068 1.326 15.192 4.538 15.192 8.454C15.192 12.37 12.068 15.56 8.152 15.56ZM11.034 7.024C11.034 5.726 10.396 4.45 8.658 4.45H5.754V12.37H6.414V9.576H8.262L10.088 12.37H10.836L9.01 9.554C10.484 9.422 11.034 8.234 11.034 7.024ZM6.414 8.916V5.11H8.658C9.912 5.11 10.374 6.056 10.374 7.024C10.374 7.992 9.912 8.916 8.614 8.916H6.414Z" fill="black"/>
</svg>
